# xmcd
# Track frame offsets:
# 182
# 6595
# 17132
# 22067
# 33095
# 38997
# 55180
# 66245
# 76962
# 84902
# 105295
# 119120
# 134727
# 149827
# 160420
# 178862
# 193965
# 205770
#
# Disc length: 2825 seconds
# Revision: 0
# Processed by: cddbd v1.4PL0 Copyright (c) Steve Scherf et al.
# Submitted via: VisiTrax 2.9.5.180 - For more info visit www.synapsa.com
#
DISCID=0a0b0712
DTITLE=Tammy Wynette and George Jones - Tammy Wnette and George Jones live
DYEAR=1900
DGENRE=
TTITLE0=Tammy Wynette - Welcome to my world
TTITLE1=Tammy Wynette - Another chance
TTITLE2=Tammy Wynette - Your good girl's gonna go bad
TTITLE3=Tammy Wynette - DIVORCE
TTITLE4=Tammy Wynette - Singing my song
TTITLE5=Tammy Wynette - Till I can make it on my own
TTITLE6=Tammy Wynette - Womanhood
TTITLE7=Tammy Wynette - Fairy tales
TTITLE8=Tammy Wynette - When the grass grows over me
TTITLE9=Tammy Wynette - Medley: Amazing grace, I'll fly away, Will the circlæ
TTITLE9=e be unbroken, I saw the light
TTITLE10=Tammy Wynette - Stand by your man
TTITLE11=Tammy Wynette - Crying in the rain
TTITLE12=George Jones - No show Jones
TTITLE13=George Jones - The race is on
TTITLE14=George Jones - Bartender blues
TTITLE15=George Jones - I always get lucky with you
TTITLE16=George Jones - She's my rock
TTITLE17=George Jones - Chicken reel
EXTD=
EXTT0=
EXTT1=
EXTT2=
EXTT3=
EXTT4=
EXTT5=
EXTT6=
EXTT7=
EXTT8=
EXTT9=
EXTT10=
EXTT11=
EXTT12=
EXTT13=
EXTT14=
EXTT15=
EXTT16=
EXTT17=
PLAYORDER=
